<?xml version="1.0" encoding="utf-8"?><!DOCTYPE svg PUBLIC "-//W3C//DTD SVG 1.1//EN" "http://www.w3.org/Graphics/SVG/1.1/DTD/svg11.dtd"><svg version="1.1" xmlns="http://www.w3.org/2000/svg" xmlns:xlink="http://www.w3.org/1999/xlink" width="32" height="32" viewBox="0 0 32 32" data-tags="moon-stroke,night"><g fill="#444" transform="scale(0.03125 0.03125)"><path d="M188.64 292.736c27.136 286.688 256 515.488 542.624 542.496-61.12 38.752-132.864 60.736-208 60.736-218.016 0.032-395.264-177.216-395.264-395.296 0-75.104 22.016-146.784 60.64-207.936M379.008 0c-218.368 63.008-379.008 262.048-379.008 500.672 0 289.088 234.24 523.328 523.264 523.328 238.624 0 437.76-160.736 500.736-379.008-69.76 40.256-149.504 64.992-235.744 64.992-262.016 0-474.24-212.448-474.24-474.304-0.032-86.24 24.736-165.984 64.992-235.68v0z" /></g></svg>